<?xml version="1.0" encoding="utf-8"?>
<!-- Generator: Adobe Illustrator 19.1.0, SVG Export Plug-In . SVG Version: 6.00 Build 0)  -->
<svg version="1.1" id="Layer_1" xmlns="http://www.w3.org/2000/svg" xmlns:xlink="http://www.w3.org/1999/xlink" x="0px" y="0px"
	 viewBox="0 0 35 35" style="enable-background:new 0 0 35 35;" xml:space="preserve">
<style type="text/css">
	.st0{fill:#0398CC;}
	.st1{fill:#FFFFFF;}
	.st2{fill:#5A5A5C;}
	.st3{fill:#C4BAB3;}
</style>
<g>
	<path stroke="null" id="svg_2" d="m27.43567,29.783781l-19.561662,0c-1.787894,0 -3.155107,-1.489744 -3.155107,-3.192308l0,-19.153846c0,-1.702564 1.472383,-3.192308 3.155107,-3.192308l19.456492,0c1.787894,0 3.155107,1.383333 3.155107,3.192308l0,19.153846c0.10517,1.702564 -1.367213,3.192308 -3.049937,3.192308z" class="st2"/>
   <path stroke="null" id="svg_3" d="m26.384642,26.251189l-17.395701,0c-1.186071,0 -1.976784,-1.206057 -1.976784,-3.015142l0,-12.663596c0,-1.809085 0.790714,-3.015142 1.976784,-3.015142l17.395701,0c1.186071,0 1.976784,1.206057 1.976784,3.015142l0,13.266625c-0.395357,1.206057 -1.186071,2.412114 -1.976784,2.412114z" class="st1"/>
</g>
</svg>
